<svg width="16" height="16" fill="none" xmlns="http://www.w3.org/2000/svg"><rect width="16" height="16" rx="4" fill="#EEE"/><path fill-rule="evenodd" clip-rule="evenodd" d="M12.961 5.272l1.025 4.3a.288.288 0 01-.152.35.275.275 0 01-.134.023h-.815c-.14 1.182-1.133 2.098-2.336 2.098-1.204 0-2.196-.916-2.337-2.098h-.4c-.14 1.196-1.144 2.123-2.36 2.123-1.22 0-2.225-.93-2.363-2.129h-.794a.278.278 0 01-.235-.109.288.288 0 01-.049-.258l1.027-4.3c.072-.474.516-1.34 1.705-1.34.079 0 .154.032.21.089a.305.305 0 010 .427.295.295 0 01-.21.089c-.957 0-1.106.75-1.118.833l-.946 3.973h.414c.152-1.183 1.15-2.097 2.358-2.097 1.208 0 2.205.913 2.358 2.095l.406.002c.152-1.17 1.139-2.072 2.334-2.072 1.197 0 2.185.906 2.334 2.079v-.011h.435l-.944-3.969c-.014-.082-.156-.833-1.118-.833a.295.295 0 01-.21-.089.305.305 0 010-.427.295.295 0 01.21-.089c1.19 0 1.634.866 1.705 1.34zm-5.74 4.673a1.856 1.856 0 00-.004-.604A1.8 1.8 0 005.45 7.839 1.8 1.8 0 003.66 9.657a1.8 1.8 0 001.793 1.818 1.8 1.8 0 001.77-1.53zm5.073 0a1.78 1.78 0 00-1.745-2.081A1.78 1.78 0 008.78 9.657a1.776 1.776 0 001.768 1.793c.88 0 1.61-.652 1.746-1.505z" fill="#000"/></svg>