<svg width="79" height="62" viewBox="0 0 79 62" fill="none" xmlns="http://www.w3.org/2000/svg">
<path d="M35.1468 6.85317L30.8388 0C28.3886 1.45606 0 11.8523 0 38.4593C0 45.4775 0.341426 61.9212 18.9793 61.9212C30.2162 61.9212 32.9778 51.9424 32.9778 48.7294C32.9778 27.3739 11.5081 34.9745 11.5081 34.9745C11.5081 17.4727 31.3911 8.91107 35.1468 6.85317Z" fill="#EFEFEF"/>
<path d="M79 6.85317L74.7322 0C72.302 1.45606 43.8833 11.8523 43.8833 38.4593C43.8833 45.4775 44.2247 61.9212 62.8726 61.9212C74.0995 61.9212 76.8611 51.9424 76.8611 48.7294C76.8611 27.3739 55.3914 34.9745 55.3914 34.9745C55.3914 17.4727 75.3146 8.91107 79 6.85317Z" fill="#EFEFEF"/>
</svg>
