<svg width="22" height="41" viewBox="0 0 22 41" fill="none" xmlns="http://www.w3.org/2000/svg">
<path opacity="0.3" d="M2.0413 20.7381L21.7483 1.97587C21.8281 1.90068 21.8914 1.81117 21.9346 1.71252C21.9778 1.61386 22 1.50802 22 1.40112C22 1.29422 21.9778 1.18838 21.9346 1.08973C21.8914 0.991071 21.8281 0.901559 21.7483 0.82637C21.6686 0.750084 21.5738 0.689555 21.4694 0.648254C21.365 0.606953 21.2532 0.585693 21.1401 0.585693C21.0271 0.585693 20.9153 0.606953 20.8109 0.648254C20.7065 0.689555 20.6117 0.750084 20.532 0.82637L0.252535 20.1536C0.17249 20.2296 0.108978 20.32 0.0656429 20.4194C0.0223074 20.5189 0 20.6255 0 20.7332C0 20.8409 0.0223074 20.9476 0.0656429 21.047C0.108978 21.1465 0.17249 21.2368 0.252535 21.3129L20.532 40.6498C20.6967 40.8008 20.9167 40.8846 21.1453 40.8836C21.3139 40.8821 21.4783 40.8333 21.6181 40.7433C21.7578 40.6533 21.8666 40.5261 21.9309 40.3775C21.9952 40.2289 22.0122 40.0656 21.9797 39.9078C21.9473 39.7501 21.8668 39.605 21.7483 39.4906L2.0413 20.7381Z" fill="#283645"/>
</svg>
